<?xml version="1.0" encoding="UTF-8"?>
<!DOCTYPE svg PUBLIC "-//W3C//DTD SVG 1.1//EN" "http://www.w3.org/Graphics/SVG/1.1/DTD/svg11.dtd">
<svg xmlns="http://www.w3.org/2000/svg" version="1.1" width="7487px" height="1528px" style="shape-rendering:geometricPrecision; text-rendering:geometricPrecision; image-rendering:optimizeQuality; fill-rule:evenodd; clip-rule:evenodd" xmlns:xlink="http://www.w3.org/1999/xlink">
<g><path style="opacity:0.983" fill="#000000" d="M 1222.5,71.5 C 1332.72,68.0516 1426.55,105.052 1504,182.5C 1584.7,270.288 1617.03,373.621 1601,492.5C 1578.07,615.944 1510.91,706.11 1399.5,763C 1294.5,810.333 1189.5,810.333 1084.5,763C 973.093,706.11 905.927,615.944 883,492.5C 866.625,368.29 902.125,261.79 989.5,173C 1054.91,111.566 1132.58,77.7324 1222.5,71.5 Z M 1226.5,147.5 C 1327.74,145.378 1409.57,183.711 1472,262.5C 1531.65,347.007 1544.65,438.34 1511,536.5C 1471.79,631.378 1402.29,691.212 1302.5,716C 1184.08,736.43 1087.25,700.263 1012,607.5C 952.351,522.993 939.351,431.66 973,333.5C 1004.83,253.667 1060.67,197.833 1140.5,166C 1168.44,155.78 1197.11,149.613 1226.5,147.5 Z"/></g>
<g><path style="opacity:0.986" fill="#000000" d="M 292.5,94.5 C 402.834,94.3333 513.167,94.5 623.5,95C 698.203,101.914 752.37,138.748 786,205.5C 795.583,226.83 801.249,249.164 803,272.5C 803.994,621.517 803.66,970.517 802,1319.5C 790.766,1391.72 751.932,1442.89 685.5,1473C 665.31,1481.3 644.31,1485.96 622.5,1487C 512.833,1487.67 403.167,1487.67 293.5,1487C 218.39,1480.38 163.89,1443.55 130,1376.5C 120.417,1355.17 114.751,1332.84 113,1309.5C 112.333,963.833 112.333,618.167 113,272.5C 119.292,208.937 148.792,159.437 201.5,124C 229.544,106.818 259.877,96.9846 292.5,94.5 Z M 295.5,170.5 C 403.834,170.333 512.167,170.5 620.5,171C 672.129,177.398 706.296,205.231 723,254.5C 724.98,261.714 726.313,269.047 727,276.5C 727.667,619.5 727.667,962.5 727,1305.5C 720.268,1355.14 693.435,1388.64 646.5,1406C 638.036,1408.69 629.369,1410.35 620.5,1411C 512.167,1411.67 403.833,1411.67 295.5,1411C 243.871,1404.6 209.704,1376.77 193,1327.5C 191.02,1320.29 189.687,1312.95 189,1305.5C 188.333,962.5 188.333,619.5 189,276.5C 196.841,221.991 227.341,187.491 280.5,173C 285.681,172.4 290.681,171.566 295.5,170.5 Z"/></g>
<g><path style="opacity:0.987" fill="#000000" d="M 6132.5,154.5 C 6174.75,155.625 6204.59,175.291 6222,213.5C 6236.73,260.501 6224.23,298.334 6184.5,327C 6146.95,346.962 6110.95,344.628 6076.5,320C 6040.89,286.297 6033.39,247.13 6054,202.5C 6071.93,173.082 6098.09,157.082 6132.5,154.5 Z"/></g>
<g><path style="opacity:0.99" fill="#000000" d="M 3839.5,173.5 C 3874.5,173.5 3909.5,173.5 3944.5,173.5C 3944.88,341.167 3945.22,508.833 3945.5,676.5C 3949.23,676.823 3952.89,676.489 3956.5,675.5C 3975.8,598.702 4023.13,548.202 4098.5,524C 4178.16,502.144 4257.83,502.144 4337.5,524C 4423.39,550.56 4484.89,604.726 4522,686.5C 4543.62,736.939 4555.96,789.606 4559,844.5C 4565.86,933.404 4554.2,1019.74 4524,1103.5C 4477.16,1218.67 4395.66,1298.51 4279.5,1343C 4204.96,1370.26 4127.96,1384.26 4048.5,1385C 3978.39,1385.88 3908.72,1380.71 3839.5,1369.5C 3839.5,970.833 3839.5,572.167 3839.5,173.5 Z M 4186.5,605.5 C 4334.45,599.304 4421.28,668.97 4447,814.5C 4459.54,900.388 4451.88,984.388 4424,1066.5C 4382.63,1172.86 4306.8,1241.03 4196.5,1271C 4136.71,1285.86 4076.04,1291.2 4014.5,1287C 3991.73,1286.25 3969.06,1284.42 3946.5,1281.5C 3946.08,1199.83 3945.74,1118.17 3945.5,1036.5C 3945.4,979.159 3945.9,921.825 3947,864.5C 3948.28,811.043 3961.28,760.709 3986,713.5C 4015.04,665.157 4056.88,633.324 4111.5,618C 4136.22,611.258 4161.22,607.091 4186.5,605.5 Z"/></g>
<g><path style="opacity:0.989" fill="#000000" d="M 4793.5,173.5 C 4829.17,173.5 4864.83,173.5 4900.5,173.5C 4900.5,427.167 4900.5,680.833 4900.5,934.5C 4938.2,934.841 4975.86,934.007 5013.5,932C 5071.41,929.087 5126.74,915.754 5179.5,892C 5235.29,863.289 5278.46,821.456 5309,766.5C 5332.52,722.456 5350.18,676.123 5362,627.5C 5370.57,593.165 5377.4,558.499 5382.5,523.5C 5420.17,523.5 5457.83,523.5 5495.5,523.5C 5486.38,589.263 5471.21,653.596 5450,716.5C 5426.25,787.382 5389.25,850.049 5339,904.5C 5326.43,917.074 5313.26,928.907 5299.5,940C 5383.03,1082.7 5466.37,1225.54 5549.5,1368.5C 5505.5,1369.83 5461.5,1369.83 5417.5,1368.5C 5346.96,1243.92 5276.29,1119.42 5205.5,995C 5145.61,1017.18 5083.61,1029.51 5019.5,1032C 4979.84,1033.24 4940.18,1033.74 4900.5,1033.5C 4900.5,1145.5 4900.5,1257.5 4900.5,1369.5C 4864.83,1369.5 4829.17,1369.5 4793.5,1369.5C 4793.5,970.833 4793.5,572.167 4793.5,173.5 Z"/></g>
<g><path style="opacity:0.988" fill="#000000" d="M 1812.5,236.5 C 1848.5,236.5 1884.5,236.5 1920.5,236.5C 1965.08,585.467 2009.41,934.467 2053.5,1283.5C 2058.98,1284.08 2064.14,1283.41 2069,1281.5C 2109.73,1028.8 2150.56,776.136 2191.5,523.5C 2239.88,522.841 2288.05,523.508 2336,525.5C 2376.49,778.127 2416.66,1030.79 2456.5,1283.5C 2461.76,1283.8 2466.93,1283.47 2472,1282.5C 2516.5,933.864 2560.66,585.198 2604.5,236.5C 2640.5,236.5 2676.5,236.5 2712.5,236.5C 2661.66,613.868 2610.5,991.202 2559,1368.5C 2500.24,1369.5 2441.4,1369.83 2382.5,1369.5C 2344.06,1117.85 2305.72,866.182 2267.5,614.5C 2264.5,614.5 2261.5,614.5 2258.5,614.5C 2220.11,865.837 2181.61,1117.17 2143,1368.5C 2084.24,1369.5 2025.4,1369.83 1966.5,1369.5C 1915.41,991.786 1864.08,614.12 1812.5,236.5 Z"/></g>
<g><path style="opacity:0.989" fill="#000000" d="M 6876.5,268.5 C 6912.5,268.5 6948.5,268.5 6984.5,268.5C 6984.5,353.5 6984.5,438.5 6984.5,523.5C 7114.5,523.5 7244.5,523.5 7374.5,523.5C 7374.5,556.167 7374.5,588.833 7374.5,621.5C 7244.5,621.5 7114.5,621.5 6984.5,621.5C 6984.03,773.843 6984.53,926.176 6986,1078.5C 6988.05,1122.03 6999.71,1162.7 7021,1200.5C 7050.99,1244.41 7092.49,1270.58 7145.5,1279C 7179.31,1284.16 7213.31,1285.82 7247.5,1284C 7296.47,1281.58 7345.14,1276.41 7393.5,1268.5C 7397.92,1300.83 7402.25,1333.16 7406.5,1365.5C 7319.92,1382.56 7232.59,1388.4 7144.5,1383C 6988.81,1368.65 6901.31,1283.81 6882,1128.5C 6880.23,1114.54 6878.89,1100.54 6878,1086.5C 6876.54,931.508 6876.04,776.508 6876.5,621.5C 6795.5,621.5 6714.5,621.5 6633.5,621.5C 6633.5,588.833 6633.5,556.167 6633.5,523.5C 6714.5,523.5 6795.5,523.5 6876.5,523.5C 6876.5,438.5 6876.5,353.5 6876.5,268.5 Z"/></g>
<g><path style="opacity:0.989" fill="#000000" d="M 3215.5,507.5 C 3273.15,506.13 3328.48,516.63 3381.5,539C 3443.39,567.889 3489.89,612.722 3521,673.5C 3545.16,723.117 3559.82,775.45 3565,830.5C 3570.04,881.254 3569.54,931.92 3563.5,982.5C 3362.17,983.5 3160.83,983.833 2959.5,983.5C 2963.98,1051.78 2986.14,1113.45 3026,1168.5C 3067.36,1219.12 3119.86,1252.96 3183.5,1270C 3226.26,1281.28 3269.76,1286.78 3314,1286.5C 3380.87,1285.42 3447.04,1278.09 3512.5,1264.5C 3516.94,1297.26 3521.94,1329.92 3527.5,1362.5C 3431.39,1381.82 3334.39,1388.65 3236.5,1383C 3163.93,1377.95 3096.26,1357.28 3033.5,1321C 2966.59,1278.06 2918.42,1219.56 2889,1145.5C 2867.11,1087.18 2855.45,1026.85 2854,964.5C 2851.19,898.837 2857.86,834.171 2874,770.5C 2889.74,710.681 2917.74,657.681 2958,611.5C 3013.06,554.554 3080.23,521.387 3159.5,512C 3178.27,509.8 3196.93,508.3 3215.5,507.5 Z M 3217.5,606.5 C 3349.56,607.394 3429.39,672.394 3457,801.5C 3462.7,831.228 3465.53,861.228 3465.5,891.5C 3296.83,891.5 3128.17,891.5 2959.5,891.5C 2962.3,830.954 2978.47,774.288 3008,721.5C 3047.64,657.94 3104.81,620.773 3179.5,610C 3192.29,608.434 3204.95,607.267 3217.5,606.5 Z"/></g>
<g><path style="opacity:0.99" fill="#000000" d="M 5797.5,523.5 C 5930.83,523.5 6064.17,523.5 6197.5,523.5C 6197.5,772.833 6197.5,1022.17 6197.5,1271.5C 6290.17,1271.5 6382.83,1271.5 6475.5,1271.5C 6475.5,1304.17 6475.5,1336.83 6475.5,1369.5C 6233.5,1369.5 5991.5,1369.5 5749.5,1369.5C 5749.5,1336.83 5749.5,1304.17 5749.5,1271.5C 5862.83,1271.5 5976.17,1271.5 6089.5,1271.5C 6089.5,1054.83 6089.5,838.167 6089.5,621.5C 5992.17,621.5 5894.83,621.5 5797.5,621.5C 5797.5,588.833 5797.5,556.167 5797.5,523.5 Z"/></g>
<g><path style="opacity:0.986" fill="#000000" d="M 1021.5,897.5 C 1177.83,897.333 1334.17,897.5 1490.5,898C 1550.61,903.956 1595.45,933.123 1625,985.5C 1635.27,1005.97 1641.27,1027.64 1643,1050.5C 1643.98,1145.85 1643.64,1241.19 1642,1336.5C 1629.91,1406.92 1589.75,1452.75 1521.5,1474C 1511.32,1476.6 1500.99,1478.26 1490.5,1479C 1334.17,1479.67 1177.83,1479.67 1021.5,1479C 949.318,1470.84 900.818,1432.67 876,1364.5C 873.051,1355.37 871.051,1346.04 870,1336.5C 868.358,1241.19 868.024,1145.85 869,1050.5C 876.16,984.694 909.66,937.861 969.5,910C 986.361,903.284 1003.69,899.117 1021.5,897.5 Z M 1024.5,973.5 C 1178.83,973.333 1333.17,973.5 1487.5,974C 1524.42,979.539 1549.59,999.706 1563,1034.5C 1564.81,1040.74 1566.14,1047.07 1567,1053.5C 1567.67,1143.5 1567.67,1233.5 1567,1323.5C 1561.46,1360.42 1541.29,1385.59 1506.5,1399C 1500.26,1400.81 1493.93,1402.14 1487.5,1403C 1333.17,1403.67 1178.83,1403.67 1024.5,1403C 987.578,1397.46 962.412,1377.29 949,1342.5C 947.191,1336.26 945.857,1329.93 945,1323.5C 944.333,1233.5 944.333,1143.5 945,1053.5C 950.539,1016.58 970.706,991.412 1005.5,978C 1011.93,976.308 1018.26,974.808 1024.5,973.5 Z"/></g>
</svg>
